<svg width="79" height="79" viewBox="0 0 79 79" fill="none" xmlns="http://www.w3.org/2000/svg">
<path d="M21.5976 27.2969L24.6865 32.6582L24.8398 32.9238L24.6083 33.124C22.9777 34.535 21.9462 36.6214 21.9462 38.9492C21.9463 41.2322 22.9381 43.2823 24.5146 44.6914L24.7392 44.8926L24.5888 45.1533L21.4951 50.5244L21.2861 50.8857L20.9511 50.6367C17.3939 47.9831 15.0889 43.7357 15.0888 38.9492C15.0888 34.1153 17.4402 29.8307 21.0576 27.1826L21.3915 26.9385L21.5976 27.2969Z" fill="#4285F4" stroke="#4285F4" stroke-width="0.742097"/>
<path d="M48.0065 10.6406C63.6604 10.6406 76.351 23.3305 76.3513 38.9844C76.3513 44.5582 74.7406 49.7562 71.9616 54.1396L77.571 68.1572L77.6999 68.4785L77.3786 68.3496L63.4304 62.7676C58.9914 65.6522 53.6946 67.3291 48.0065 67.3291H30.0095C29.1114 67.3291 28.2231 67.2868 27.3464 67.2051L27.1159 67.1836L27.2311 66.9834L31.5475 59.5078L31.5905 59.4336H48.0065C59.2999 59.4336 68.4557 50.2778 68.4557 38.9844C68.4555 27.6912 59.2998 18.5361 48.0065 18.5361H31.7722L31.7292 18.4619L27.404 10.9707L27.2878 10.7686L27.5202 10.749C28.3405 10.6776 29.1707 10.6406 30.0095 10.6406H48.0065Z" fill="#4285F4" stroke="#4285F4" stroke-width="0.296839"/>
<path d="M14.911 15.0312L18.7157 21.6211L18.8563 21.8633L18.6219 22.0176C13.1039 25.6468 9.46183 31.8932 9.46178 38.9902C9.46178 46.0314 13.0468 52.2355 18.4921 55.877L18.7235 56.0312L18.5848 56.2725L14.7782 62.8643L14.6229 63.1348L14.3602 62.9658C6.48561 57.8968 1.26939 49.0526 1.26939 38.9902C1.26945 28.8707 6.54529 19.9833 14.495 14.9287L14.7567 14.7627L14.911 15.0312Z" fill="#4285F4" stroke="#4285F4" stroke-width="0.593678"/>
<circle cx="36.2825" cy="38.8871" r="4.78653" fill="#4285F4"/>
<ellipse cx="52.048" cy="38.8871" rx="4.74942" ry="4.78653" fill="#4285F4"/>
</svg>
