<svg viewBox="0 0 800 600" xmlns="http://www.w3.org/2000/svg">
  <defs>
    <linearGradient id="bg" x1="0%" y1="0%" x2="100%" y2="100%">
      <stop offset="0%" stop-color="#0a1628"/><stop offset="100%" stop-color="#0d1f3a"/>
    </linearGradient>
  </defs>
  <rect width="800" height="600" fill="url(#bg)"/>
  <ellipse cx="400" cy="300" rx="280" ry="200" fill="#2563eb" fill-opacity="0.12"/>
  <rect x="150" y="130" width="500" height="340" rx="8" fill="rgba(15,35,60,0.9)" stroke="rgba(37,99,235,0.4)" stroke-width="1.5"/>
  <g stroke="rgba(37,99,235,0.35)" stroke-width="1.5" fill="none">
    <line x1="150" y1="200" x2="650" y2="200"/><line x1="150" y1="260" x2="450" y2="260"/>
    <line x1="350" y1="320" x2="650" y2="320"/><line x1="150" y1="380" x2="650" y2="380"/>
    <line x1="220" y1="130" x2="220" y2="470"/><line x1="350" y1="130" x2="350" y2="470"/>
    <line x1="450" y1="130" x2="450" y2="320"/><line x1="550" y1="200" x2="550" y2="470"/>
  </g>
  <rect x="260" y="210" width="120" height="100" rx="4" fill="rgba(37,99,235,0.2)" stroke="rgba(37,99,235,0.9)" stroke-width="1.5"/>
  <text x="320" y="258" fill="rgba(255,255,255,0.9)" font-family="monospace" font-size="10" text-anchor="middle" font-weight="bold">MCU</text>
  <text x="320" y="272" fill="rgba(255,255,255,0.5)" font-family="monospace" font-size="8" text-anchor="middle">ARM Cortex-M</text>
  <g fill="rgba(37,99,235,0.8)">
    <rect x="252" y="220" width="8" height="4" rx="1"/><rect x="252" y="230" width="8" height="4" rx="1"/>
    <rect x="252" y="240" width="8" height="4" rx="1"/><rect x="252" y="250" width="8" height="4" rx="1"/>
    <rect x="252" y="260" width="8" height="4" rx="1"/><rect x="252" y="270" width="8" height="4" rx="1"/>
    <rect x="380" y="220" width="8" height="4" rx="1"/><rect x="380" y="230" width="8" height="4" rx="1"/>
    <rect x="380" y="240" width="8" height="4" rx="1"/><rect x="380" y="250" width="8" height="4" rx="1"/>
    <rect x="380" y="260" width="8" height="4" rx="1"/><rect x="380" y="270" width="8" height="4" rx="1"/>
  </g>
  <rect x="460" y="230" width="80" height="60" rx="4" fill="rgba(37,99,235,0.15)" stroke="rgba(37,99,235,0.7)" stroke-width="1"/>
  <text x="500" y="258" fill="rgba(255,255,255,0.8)" font-family="monospace" font-size="9" text-anchor="middle">DSP</text>
  <text x="500" y="270" fill="rgba(255,255,255,0.4)" font-family="monospace" font-size="7" text-anchor="middle">AUDIO</text>
  <rect x="170" y="155" width="60" height="35" rx="3" fill="rgba(37,99,235,0.15)" stroke="rgba(37,99,235,0.6)" stroke-width="1"/>
  <text x="200" y="172" fill="rgba(255,255,255,0.8)" font-family="monospace" font-size="9" text-anchor="middle">BLE</text>
  <text x="200" y="182" fill="rgba(255,255,255,0.4)" font-family="monospace" font-size="7" text-anchor="middle">5.3</text>
  <rect x="250" y="155" width="60" height="35" rx="3" fill="rgba(37,99,235,0.15)" stroke="rgba(37,99,235,0.6)" stroke-width="1"/>
  <text x="280" y="172" fill="rgba(255,255,255,0.8)" font-family="monospace" font-size="9" text-anchor="middle">Wi-Fi</text>
  <text x="280" y="182" fill="rgba(255,255,255,0.4)" font-family="monospace" font-size="7" text-anchor="middle">6E</text>
  <circle cx="485" cy="180" r="20" fill="rgba(37,99,235,0.2)" stroke="rgba(37,99,235,0.7)" stroke-width="1"/>
  <circle cx="485" cy="180" r="12" fill="none" stroke="rgba(37,99,235,0.9)" stroke-width="1"/>
  <text x="485" y="184" fill="rgba(255,255,255,0.8)" font-family="monospace" font-size="8" text-anchor="middle">MIC</text>
  <rect x="560" y="155" width="70" height="35" rx="3" fill="rgba(37,99,235,0.1)" stroke="rgba(37,99,235,0.5)" stroke-width="1"/>
  <rect x="630" y="163" width="6" height="18" rx="2" fill="rgba(37,99,235,0.5)"/>
  <rect x="565" y="160" width="50" height="25" rx="2" fill="rgba(37,99,235,0.25)"/>
  <text x="595" y="176" fill="rgba(255,255,255,0.7)" font-family="monospace" font-size="8" text-anchor="middle">BATT</text>
  <g fill="rgba(37,99,235,0.6)">
    <circle cx="220" cy="200" r="3"/><circle cx="350" cy="200" r="3"/>
    <circle cx="450" cy="200" r="3"/><circle cx="550" cy="200" r="3"/>
    <circle cx="220" cy="260" r="3"/><circle cx="220" cy="320" r="3"/>
    <circle cx="350" cy="320" r="3"/><circle cx="550" cy="320" r="3"/>
    <circle cx="220" cy="380" r="3"/><circle cx="350" cy="380" r="3"/>
    <circle cx="550" cy="380" r="3"/>
  </g>
  <rect x="560" y="430" width="80" height="20" rx="3" fill="rgba(37,99,235,0.2)" stroke="rgba(37,99,235,0.4)" stroke-width="1"/>
  <text x="600" y="444" fill="rgba(255,255,255,0.5)" font-family="monospace" font-size="8" text-anchor="middle">REV 2.4.1</text>
</svg>
