<svg viewBox="0 0 800 600" xmlns="http://www.w3.org/2000/svg">
  <defs>
    <linearGradient id="bg" x1="0%" y1="0%" x2="100%" y2="100%">
      <stop offset="0%" stop-color="#0a1628"/>
      <stop offset="100%" stop-color="#0f2040"/>
    </linearGradient>
    <linearGradient id="glow" x1="0%" y1="0%" x2="100%" y2="100%">
      <stop offset="0%" stop-color="#2563eb" stop-opacity="0.3"/>
      <stop offset="100%" stop-color="#2563eb" stop-opacity="0"/>
    </linearGradient>
  </defs>
  <rect width="800" height="600" fill="url(#bg)"/>
  <ellipse cx="400" cy="250" rx="300" ry="200" fill="url(#glow)"/>
  <g stroke="rgba(37,99,235,0.12)" stroke-width="1">
    <line x1="0" y1="100" x2="800" y2="100"/><line x1="0" y1="200" x2="800" y2="200"/>
    <line x1="0" y1="300" x2="800" y2="300"/><line x1="0" y1="400" x2="800" y2="400"/>
    <line x1="0" y1="500" x2="800" y2="500"/><line x1="100" y1="0" x2="100" y2="600"/>
    <line x1="200" y1="0" x2="200" y2="600"/><line x1="300" y1="0" x2="300" y2="600"/>
    <line x1="400" y1="0" x2="400" y2="600"/><line x1="500" y1="0" x2="500" y2="600"/>
    <line x1="600" y1="0" x2="600" y2="600"/><line x1="700" y1="0" x2="700" y2="600"/>
  </g>
  <rect x="300" y="120" width="200" height="300" rx="24" fill="none" stroke="rgba(37,99,235,0.6)" stroke-width="2" stroke-dasharray="8,4"/>
  <rect x="310" y="130" width="180" height="280" rx="20" fill="rgba(37,99,235,0.08)" stroke="rgba(37,99,235,0.9)" stroke-width="1.5"/>
  <rect x="330" y="160" width="140" height="100" rx="6" fill="rgba(37,99,235,0.15)" stroke="rgba(37,99,235,0.5)" stroke-width="1"/>
  <g fill="rgba(255,255,255,0.4)"><circle cx="385" cy="290" r="2"/><circle cx="395" cy="290" r="2"/><circle cx="405" cy="290" r="2"/><circle cx="415" cy="290" r="2"/></g>
  <rect x="330" y="320" width="50" height="18" rx="9" fill="rgba(37,99,235,0.5)" stroke="rgba(37,99,235,0.9)" stroke-width="1"/>
  <g stroke="rgba(255,255,255,0.3)" stroke-width="1">
    <line x1="270" y1="130" x2="270" y2="410"/><line x1="265" y1="130" x2="275" y2="130"/>
    <line x1="265" y1="410" x2="275" y2="410"/><line x1="310" y1="460" x2="490" y2="460"/>
    <line x1="310" y1="455" x2="310" y2="465"/><line x1="490" y1="455" x2="490" y2="465"/>
  </g>
  <text x="250" y="275" fill="rgba(255,255,255,0.4)" font-family="monospace" font-size="11" text-anchor="middle" transform="rotate(-90,250,275)">68mm</text>
  <text x="400" y="480" fill="rgba(255,255,255,0.4)" font-family="monospace" font-size="11" text-anchor="middle">34mm</text>
  <g stroke="rgba(37,99,235,0.8)" stroke-width="1.5" fill="none">
    <path d="M180,80 L180,110 L210,110"/><path d="M620,80 L620,110 L590,110"/>
    <path d="M180,520 L180,490 L210,490"/><path d="M620,520 L620,490 L590,490"/>
  </g>
  <rect x="140" y="190" width="130" height="24" rx="4" fill="rgba(37,99,235,0.2)" stroke="rgba(37,99,235,0.5)" stroke-width="1"/>
  <text x="205" y="206" fill="rgba(255,255,255,0.7)" font-family="monospace" font-size="10" text-anchor="middle">FORM FACTOR</text>
  <line x1="270" y1="202" x2="310" y2="200" stroke="rgba(37,99,235,0.5)" stroke-width="1"/>
  <rect x="510" y="150" width="120" height="24" rx="4" fill="rgba(37,99,235,0.2)" stroke="rgba(37,99,235,0.5)" stroke-width="1"/>
  <text x="570" y="166" fill="rgba(255,255,255,0.7)" font-family="monospace" font-size="10" text-anchor="middle">DISPLAY UNIT</text>
  <line x1="510" y1="162" x2="490" y2="210" stroke="rgba(37,99,235,0.5)" stroke-width="1"/>
  <rect x="510" y="310" width="110" height="24" rx="4" fill="rgba(37,99,235,0.2)" stroke="rgba(37,99,235,0.5)" stroke-width="1"/>
  <text x="565" y="326" fill="rgba(255,255,255,0.7)" font-family="monospace" font-size="10" text-anchor="middle">VOICE MODULE</text>
  <line x1="510" y1="322" x2="490" y2="322" stroke="rgba(37,99,235,0.5)" stroke-width="1"/>
</svg>
